<svg xmlns="http://www.w3.org/2000/svg" xmlns:xlink="http://www.w3.org/1999/xlink" width="100" zoomAndPan="magnify" viewBox="0 0 75 74.999997" height="100" preserveAspectRatio="xMidYMid meet" version="1.0"><defs><clipPath id="cecd76ab4a"><path d="M 14 16.113281 L 62.636719 16.113281 L 62.636719 55 L 14 55 Z M 14 16.113281 " clip-rule="nonzero"/></clipPath><clipPath id="1f091d13ae"><path d="M 27 47 L 62.636719 47 L 62.636719 58.863281 L 27 58.863281 Z M 27 47 " clip-rule="nonzero"/></clipPath><clipPath id="32ef713073"><path d="M 12.386719 26 L 28 26 L 28 58 L 12.386719 58 Z M 12.386719 26 " clip-rule="nonzero"/></clipPath><clipPath id="e2b3682597"><path d="M 26.25 26.25 L 48.75 26.25 L 48.75 48.75 L 26.25 48.75 Z M 26.25 26.25 " clip-rule="nonzero"/></clipPath><clipPath id="cc16dc2330"><path d="M 37.5 26.25 C 31.285156 26.25 26.25 31.285156 26.25 37.5 C 26.25 43.714844 31.285156 48.75 37.5 48.75 C 43.714844 48.75 48.75 43.714844 48.75 37.5 C 48.75 31.285156 43.714844 26.25 37.5 26.25 Z M 37.5 26.25 " clip-rule="nonzero"/></clipPath></defs><g clip-path="url(#cecd76ab4a)"><path fill="#3478ee" d="M 14.582031 25.054688 L 28.769531 54.449219 L 62.601562 45.507812 L 48.414062 16.113281 L 14.582031 25.054688 " fill-opacity="1" fill-rule="nonzero"/></g><g clip-path="url(#1f091d13ae)"><path fill="#3478ee" d="M 27.949219 58.886719 L 61.371094 50.050781 L 62.378906 47.515625 L 28.960938 56.351562 L 27.949219 58.886719 " fill-opacity="1" fill-rule="nonzero"/></g><g clip-path="url(#32ef713073)"><path fill="#3478ee" d="M 27.238281 55.59375 L 13.320312 26.769531 L 12.390625 29.117188 L 26.304688 57.941406 L 27.238281 55.59375 " fill-opacity="1" fill-rule="nonzero"/></g><g clip-path="url(#e2b3682597)"><g clip-path="url(#cc16dc2330)"><path fill="#3478ee" d="M 26.25 26.25 L 48.75 26.25 L 48.75 48.75 L 26.25 48.75 Z M 26.25 26.25 " fill-opacity="1" fill-rule="nonzero"/></g></g></svg>