<svg xmlns="http://www.w3.org/2000/svg" xmlns:xlink="http://www.w3.org/1999/xlink" width="100" zoomAndPan="magnify" viewBox="0 0 75 74.999997" height="100" preserveAspectRatio="xMidYMid meet" version="1.0"><defs><clipPath id="91dade5cbc"><path d="M 9.011719 17.949219 L 65.980469 17.949219 L 65.980469 56.949219 L 9.011719 56.949219 Z M 9.011719 17.949219 " clip-rule="nonzero"/></clipPath><clipPath id="978b915908"><path d="M 12 26 L 30 26 L 30 33 L 12 33 Z M 12 26 " clip-rule="nonzero"/></clipPath><clipPath id="174a578a84"><path d="M 12.859375 26.324219 L 29.335938 31.421875 L 28.894531 32.855469 L 12.414062 27.753906 Z M 12.859375 26.324219 " clip-rule="nonzero"/></clipPath><clipPath id="6028d7745d"><path d="M 12.859375 26.324219 L 29.335938 31.421875 L 28.894531 32.855469 L 12.414062 27.753906 Z M 12.859375 26.324219 " clip-rule="nonzero"/></clipPath></defs><g clip-path="url(#91dade5cbc)"><path fill="#3478ee" d="M 63.761719 38.683594 L 55.566406 41.070312 C 55.566406 41.070312 55.566406 41.070312 55.5625 41.074219 L 38.683594 45.996094 L 13.609375 38.683594 L 13.609375 36.769531 L 38.375 43.992188 C 38.578125 44.050781 38.792969 44.050781 38.996094 43.992188 L 63.761719 36.769531 Z M 58.53125 44.070312 L 36.308594 50.550781 L 14.089844 44.070312 L 19.117188 42.601562 L 38.375 48.21875 C 38.578125 48.277344 38.792969 48.277344 38.996094 48.21875 L 55.875 43.296875 Z M 61.386719 47.464844 L 36.308594 54.777344 L 11.234375 47.464844 L 11.234375 45.550781 L 36 52.773438 C 36.199219 52.832031 36.417969 52.832031 36.621094 52.773438 L 61.386719 45.550781 Z M 37.292969 39.671875 C 37.394531 39.671875 37.5 39.65625 37.601562 39.625 L 56.691406 34.058594 L 60.90625 35.289062 L 38.683594 41.765625 L 16.460938 35.289062 L 19.285156 34.464844 L 36.980469 39.625 C 37.082031 39.65625 37.1875 39.671875 37.292969 39.671875 Z M 12.214844 28.175781 L 36.980469 35.398438 C 37.183594 35.457031 37.398438 35.457031 37.601562 35.398438 L 62.367188 28.175781 L 62.367188 30.089844 L 37.292969 37.402344 L 12.214844 30.089844 Z M 37.292969 20.214844 L 59.511719 26.695312 L 37.292969 33.175781 L 15.070312 26.695312 Z M 65.972656 35.171875 C 65.972656 35.160156 65.972656 35.152344 65.96875 35.140625 C 65.964844 35.109375 65.960938 35.074219 65.953125 35.042969 C 65.953125 35.039062 65.949219 35.03125 65.949219 35.027344 C 65.941406 34.988281 65.929688 34.953125 65.917969 34.917969 C 65.914062 34.910156 65.910156 34.902344 65.910156 34.894531 C 65.898438 34.863281 65.882812 34.835938 65.871094 34.804688 C 65.867188 34.796875 65.863281 34.789062 65.859375 34.785156 C 65.84375 34.75 65.824219 34.71875 65.804688 34.683594 C 65.800781 34.679688 65.796875 34.675781 65.792969 34.667969 C 65.773438 34.640625 65.753906 34.617188 65.734375 34.589844 C 65.726562 34.582031 65.722656 34.578125 65.714844 34.570312 C 65.691406 34.539062 65.667969 34.511719 65.636719 34.484375 C 65.636719 34.480469 65.632812 34.480469 65.628906 34.476562 C 65.601562 34.453125 65.574219 34.429688 65.546875 34.410156 C 65.542969 34.40625 65.539062 34.402344 65.535156 34.398438 C 65.535156 34.398438 65.53125 34.394531 65.527344 34.390625 C 65.496094 34.371094 65.460938 34.347656 65.429688 34.328125 C 65.429688 34.328125 65.425781 34.328125 65.425781 34.328125 C 65.394531 34.308594 65.359375 34.292969 65.324219 34.277344 C 65.316406 34.273438 65.308594 34.269531 65.300781 34.265625 C 65.269531 34.253906 65.238281 34.238281 65.207031 34.230469 C 65.199219 34.226562 65.195312 34.226562 65.1875 34.226562 C 65.1875 34.222656 65.183594 34.222656 65.179688 34.222656 L 60.65625 32.902344 L 63.789062 31.988281 C 64.261719 31.851562 64.589844 31.417969 64.589844 30.921875 L 64.589844 26.695312 C 64.589844 26.65625 64.585938 26.617188 64.582031 26.578125 C 64.582031 26.570312 64.578125 26.558594 64.578125 26.550781 C 64.574219 26.515625 64.566406 26.484375 64.558594 26.453125 C 64.558594 26.445312 64.558594 26.441406 64.558594 26.433594 C 64.546875 26.398438 64.535156 26.359375 64.523438 26.324219 C 64.519531 26.316406 64.519531 26.308594 64.515625 26.300781 C 64.503906 26.273438 64.492188 26.242188 64.476562 26.214844 C 64.472656 26.207031 64.46875 26.199219 64.46875 26.191406 C 64.449219 26.15625 64.429688 26.125 64.410156 26.09375 C 64.40625 26.085938 64.402344 26.082031 64.398438 26.078125 C 64.378906 26.050781 64.363281 26.023438 64.339844 26 C 64.335938 25.992188 64.328125 25.984375 64.324219 25.976562 C 64.300781 25.949219 64.273438 25.917969 64.246094 25.894531 C 64.242188 25.890625 64.238281 25.886719 64.238281 25.886719 C 64.210938 25.859375 64.183594 25.839844 64.15625 25.816406 C 64.152344 25.8125 64.148438 25.808594 64.144531 25.808594 C 64.140625 25.804688 64.136719 25.804688 64.132812 25.800781 C 64.070312 25.753906 64.003906 25.714844 63.929688 25.683594 C 63.921875 25.679688 63.914062 25.675781 63.910156 25.671875 C 63.875 25.660156 63.84375 25.648438 63.8125 25.636719 C 63.808594 25.636719 63.800781 25.632812 63.796875 25.632812 C 63.792969 25.632812 63.792969 25.628906 63.789062 25.628906 L 37.601562 17.992188 C 37.398438 17.933594 37.183594 17.933594 36.980469 17.992188 L 10.792969 25.628906 C 10.792969 25.628906 10.789062 25.632812 10.785156 25.632812 C 10.78125 25.632812 10.777344 25.636719 10.777344 25.636719 C 10.742188 25.648438 10.707031 25.660156 10.671875 25.671875 C 10.667969 25.675781 10.660156 25.679688 10.652344 25.683594 C 10.582031 25.714844 10.511719 25.753906 10.449219 25.800781 C 10.445312 25.804688 10.441406 25.804688 10.4375 25.808594 C 10.433594 25.808594 10.433594 25.8125 10.429688 25.816406 C 10.398438 25.839844 10.371094 25.859375 10.347656 25.886719 C 10.34375 25.886719 10.339844 25.890625 10.339844 25.894531 C 10.308594 25.917969 10.285156 25.949219 10.257812 25.976562 C 10.253906 25.984375 10.246094 25.992188 10.242188 26 C 10.222656 26.023438 10.203125 26.050781 10.183594 26.078125 C 10.179688 26.082031 10.175781 26.085938 10.171875 26.09375 C 10.152344 26.125 10.132812 26.15625 10.117188 26.191406 C 10.113281 26.199219 10.109375 26.207031 10.105469 26.214844 C 10.09375 26.242188 10.078125 26.273438 10.066406 26.300781 C 10.066406 26.308594 10.0625 26.316406 10.058594 26.324219 C 10.046875 26.359375 10.035156 26.398438 10.027344 26.433594 C 10.023438 26.441406 10.023438 26.445312 10.023438 26.453125 C 10.015625 26.484375 10.011719 26.515625 10.003906 26.550781 C 10.003906 26.558594 10.003906 26.570312 10 26.578125 C 9.996094 26.617188 9.996094 26.65625 9.996094 26.695312 L 9.996094 30.921875 C 9.996094 31.417969 10.320312 31.851562 10.792969 31.988281 L 15.320312 33.308594 L 12.1875 34.222656 C 12.183594 34.222656 12.179688 34.222656 12.175781 34.226562 C 12.175781 34.226562 12.171875 34.226562 12.167969 34.226562 C 12.132812 34.238281 12.097656 34.25 12.066406 34.265625 C 12.058594 34.269531 12.050781 34.273438 12.042969 34.273438 C 12.007812 34.289062 11.972656 34.308594 11.941406 34.328125 C 11.941406 34.328125 11.941406 34.328125 11.9375 34.328125 C 11.90625 34.347656 11.875 34.367188 11.84375 34.390625 C 11.839844 34.394531 11.835938 34.394531 11.832031 34.398438 C 11.824219 34.402344 11.820312 34.410156 11.816406 34.414062 C 11.792969 34.429688 11.769531 34.449219 11.746094 34.472656 C 11.738281 34.476562 11.734375 34.480469 11.726562 34.488281 C 11.703125 34.511719 11.675781 34.539062 11.652344 34.566406 C 11.644531 34.574219 11.640625 34.585938 11.632812 34.59375 C 11.613281 34.617188 11.59375 34.640625 11.578125 34.664062 C 11.574219 34.671875 11.570312 34.679688 11.5625 34.6875 C 11.542969 34.71875 11.527344 34.75 11.507812 34.78125 C 11.503906 34.789062 11.5 34.800781 11.496094 34.808594 C 11.484375 34.835938 11.472656 34.863281 11.460938 34.894531 C 11.457031 34.902344 11.453125 34.910156 11.453125 34.917969 C 11.4375 34.953125 11.425781 34.988281 11.417969 35.027344 C 11.417969 35.03125 11.414062 35.039062 11.414062 35.042969 C 11.40625 35.074219 11.402344 35.109375 11.398438 35.140625 C 11.394531 35.152344 11.394531 35.160156 11.394531 35.171875 C 11.390625 35.210938 11.386719 35.25 11.386719 35.289062 L 11.386719 39.515625 C 11.386719 40.007812 11.714844 40.441406 12.1875 40.582031 L 15.152344 41.445312 L 9.8125 43.003906 C 9.769531 43.015625 9.726562 43.03125 9.6875 43.050781 C 9.683594 43.050781 9.675781 43.054688 9.671875 43.054688 C 9.515625 43.125 9.378906 43.230469 9.269531 43.359375 C 9.269531 43.359375 9.269531 43.363281 9.265625 43.363281 C 9.214844 43.429688 9.167969 43.496094 9.128906 43.574219 C 9.109375 43.613281 9.09375 43.648438 9.078125 43.6875 C 9.078125 43.691406 9.078125 43.691406 9.078125 43.691406 C 9.050781 43.769531 9.03125 43.851562 9.019531 43.933594 C 9.019531 43.9375 9.019531 43.941406 9.019531 43.945312 C 9.015625 43.984375 9.011719 44.027344 9.011719 44.070312 C 9.011719 44.074219 9.011719 44.082031 9.011719 44.085938 L 9.011719 48.296875 C 9.011719 48.792969 9.339844 49.226562 9.8125 49.363281 L 36 57 C 36.101562 57.03125 36.203125 57.042969 36.308594 57.042969 C 36.414062 57.042969 36.519531 57.03125 36.621094 57 L 62.804688 49.363281 C 63.28125 49.226562 63.605469 48.792969 63.605469 48.296875 L 63.605469 44.070312 C 63.605469 44.03125 63.601562 43.992188 63.597656 43.953125 C 63.597656 43.941406 63.597656 43.933594 63.59375 43.921875 C 63.589844 43.890625 63.585938 43.859375 63.578125 43.824219 C 63.578125 43.820312 63.574219 43.8125 63.574219 43.808594 C 63.566406 43.769531 63.554688 43.734375 63.542969 43.699219 C 63.539062 43.691406 63.535156 43.683594 63.53125 43.675781 C 63.519531 43.644531 63.507812 43.617188 63.496094 43.585938 C 63.492188 43.582031 63.488281 43.574219 63.484375 43.566406 C 63.46875 43.53125 63.449219 43.5 63.425781 43.46875 C 63.425781 43.460938 63.421875 43.457031 63.417969 43.453125 C 63.398438 43.425781 63.378906 43.398438 63.355469 43.371094 C 63.351562 43.363281 63.347656 43.359375 63.34375 43.351562 C 63.289062 43.289062 63.230469 43.234375 63.164062 43.183594 C 63.164062 43.183594 63.164062 43.183594 63.160156 43.183594 C 63.160156 43.179688 63.160156 43.179688 63.15625 43.179688 C 63.09375 43.132812 63.023438 43.089844 62.945312 43.054688 C 62.941406 43.054688 62.933594 43.050781 62.929688 43.046875 C 62.886719 43.03125 62.847656 43.015625 62.804688 43.003906 L 59.839844 42.136719 L 65.179688 40.582031 C 65.65625 40.441406 65.980469 40.007812 65.980469 39.515625 L 65.980469 35.289062 C 65.980469 35.25 65.976562 35.210938 65.972656 35.171875 " fill-opacity="1" fill-rule="nonzero"/></g><g clip-path="url(#978b915908)"><g clip-path="url(#174a578a84)"><g clip-path="url(#6028d7745d)"><path fill="#3478ee" d="M 12.859375 26.324219 L 29.59375 31.5 L 29.195312 32.789062 L 12.460938 27.609375 Z M 12.859375 26.324219 " fill-opacity="1" fill-rule="nonzero"/></g></g></g></svg>