<svg xmlns="http://www.w3.org/2000/svg" xmlns:xlink="http://www.w3.org/1999/xlink" width="100" zoomAndPan="magnify" viewBox="0 0 75 74.999997" height="100" preserveAspectRatio="xMidYMid meet" version="1.0"><defs><clipPath id="6a493ec82f"><path d="M 29 17.363281 L 46 17.363281 L 46 30 L 29 30 Z M 29 17.363281 " clip-rule="nonzero"/></clipPath><clipPath id="4e72ee5b33"><path d="M 29.363281 45.566406 L 45.632812 45.566406 L 45.632812 57.628906 L 29.363281 57.628906 Z M 29.363281 45.566406 " clip-rule="nonzero"/></clipPath><clipPath id="cbec9625f2"><path d="M 49 31 L 65.535156 31 L 65.535156 44 L 49 44 Z M 49 31 " clip-rule="nonzero"/></clipPath><clipPath id="332ccb8290"><path d="M 9.285156 31 L 26 31 L 26 44 L 9.285156 44 Z M 9.285156 31 " clip-rule="nonzero"/></clipPath><clipPath id="b702c35153"><path d="M 33.863281 33.863281 L 41.136719 33.863281 L 41.136719 41.136719 L 33.863281 41.136719 Z M 33.863281 33.863281 " clip-rule="nonzero"/></clipPath><clipPath id="9505c80eeb"><path d="M 37.5 33.863281 C 35.492188 33.863281 33.863281 35.492188 33.863281 37.5 C 33.863281 39.507812 35.492188 41.136719 37.5 41.136719 C 39.507812 41.136719 41.136719 39.507812 41.136719 37.5 C 41.136719 35.492188 39.507812 33.863281 37.5 33.863281 Z M 37.5 33.863281 " clip-rule="nonzero"/></clipPath></defs><g clip-path="url(#6a493ec82f)"><path fill="#3478ee" d="M 29.878906 24.273438 L 36.914062 29.300781 C 37.089844 29.425781 37.292969 29.488281 37.496094 29.488281 C 37.703125 29.488281 37.90625 29.425781 38.082031 29.300781 L 45.117188 24.273438 C 45.382812 24.085938 45.539062 23.78125 45.539062 23.457031 C 45.539062 23.132812 45.382812 22.828125 45.117188 22.640625 L 38.082031 17.613281 C 37.730469 17.367188 37.261719 17.367188 36.914062 17.613281 L 29.878906 22.640625 C 29.613281 22.828125 29.457031 23.132812 29.457031 23.457031 C 29.457031 23.78125 29.613281 24.085938 29.878906 24.273438 " fill-opacity="1" fill-rule="nonzero"/></g><path fill="#3478ee" d="M 39.507812 30.492188 C 39.507812 30.816406 39.664062 31.121094 39.929688 31.308594 L 46.964844 36.335938 C 47.140625 36.460938 47.34375 36.523438 47.546875 36.523438 C 47.753906 36.523438 47.957031 36.460938 48.132812 36.335938 L 55.167969 31.308594 C 55.429688 31.121094 55.589844 30.816406 55.589844 30.492188 C 55.589844 30.167969 55.429688 29.863281 55.167969 29.675781 L 48.132812 24.652344 C 47.78125 24.398438 47.3125 24.398438 46.964844 24.652344 L 39.929688 29.675781 C 39.664062 29.863281 39.507812 30.167969 39.507812 30.492188 " fill-opacity="1" fill-rule="nonzero"/><path fill="#3478ee" d="M 19.828125 31.3125 L 26.863281 36.335938 C 27.039062 36.460938 27.242188 36.523438 27.445312 36.523438 C 27.652344 36.523438 27.855469 36.460938 28.03125 36.335938 L 35.066406 31.3125 C 35.332031 31.121094 35.488281 30.816406 35.488281 30.492188 C 35.488281 30.167969 35.332031 29.863281 35.066406 29.675781 L 28.03125 24.648438 C 27.683594 24.402344 27.214844 24.402344 26.863281 24.648438 L 19.828125 29.675781 C 19.5625 29.863281 19.40625 30.167969 19.40625 30.492188 C 19.40625 30.816406 19.5625 31.121094 19.828125 31.3125 " fill-opacity="1" fill-rule="nonzero"/><path fill="#3478ee" d="M 38.082031 31.683594 C 37.730469 31.4375 37.261719 31.4375 36.914062 31.683594 L 29.878906 36.710938 C 29.613281 36.898438 29.457031 37.203125 29.457031 37.527344 C 29.457031 37.851562 29.613281 38.15625 29.878906 38.347656 L 36.914062 43.371094 C 37.089844 43.496094 37.292969 43.558594 37.496094 43.558594 C 37.703125 43.558594 37.90625 43.496094 38.082031 43.371094 L 45.117188 38.347656 C 45.382812 38.15625 45.539062 37.851562 45.539062 37.527344 C 45.539062 37.203125 45.382812 36.898438 45.117188 36.710938 L 38.082031 31.683594 " fill-opacity="1" fill-rule="nonzero"/><g clip-path="url(#4e72ee5b33)"><path fill="#3478ee" d="M 45.117188 50.78125 L 38.082031 45.753906 C 37.730469 45.507812 37.261719 45.507812 36.914062 45.753906 L 29.878906 50.78125 C 29.613281 50.96875 29.457031 51.273438 29.457031 51.597656 C 29.457031 51.921875 29.613281 52.226562 29.878906 52.417969 L 36.914062 57.441406 C 37.089844 57.566406 37.292969 57.628906 37.496094 57.628906 C 37.703125 57.628906 37.90625 57.566406 38.082031 57.441406 L 45.117188 52.417969 C 45.382812 52.226562 45.539062 51.921875 45.539062 51.597656 C 45.539062 51.273438 45.382812 50.96875 45.117188 50.78125 " fill-opacity="1" fill-rule="nonzero"/></g><g clip-path="url(#cbec9625f2)"><path fill="#3478ee" d="M 65.21875 36.710938 L 58.183594 31.683594 C 57.832031 31.4375 57.363281 31.4375 57.015625 31.683594 L 49.980469 36.710938 C 49.714844 36.898438 49.558594 37.203125 49.558594 37.527344 C 49.558594 37.851562 49.714844 38.15625 49.980469 38.347656 L 57.015625 43.371094 C 57.1875 43.496094 57.394531 43.558594 57.597656 43.558594 C 57.804688 43.558594 58.007812 43.496094 58.183594 43.371094 L 65.21875 38.347656 C 65.480469 38.15625 65.636719 37.851562 65.636719 37.527344 C 65.636719 37.203125 65.480469 36.898438 65.21875 36.710938 " fill-opacity="1" fill-rule="nonzero"/></g><path fill="#3478ee" d="M 55.167969 43.746094 L 48.132812 38.71875 C 47.78125 38.472656 47.3125 38.472656 46.964844 38.71875 L 39.929688 43.746094 C 39.664062 43.933594 39.507812 44.238281 39.507812 44.5625 C 39.507812 44.886719 39.664062 45.191406 39.929688 45.382812 L 46.964844 50.40625 C 47.140625 50.53125 47.34375 50.59375 47.546875 50.59375 C 47.753906 50.59375 47.957031 50.53125 48.132812 50.40625 L 55.167969 45.382812 C 55.429688 45.191406 55.589844 44.886719 55.589844 44.5625 C 55.589844 44.238281 55.429688 43.933594 55.167969 43.746094 " fill-opacity="1" fill-rule="nonzero"/><g clip-path="url(#332ccb8290)"><path fill="#3478ee" d="M 25.4375 37.527344 C 25.4375 37.203125 25.28125 36.898438 25.015625 36.710938 L 17.980469 31.6875 C 17.632812 31.433594 17.164062 31.433594 16.8125 31.6875 L 9.777344 36.710938 C 9.511719 36.898438 9.355469 37.203125 9.355469 37.527344 C 9.355469 37.851562 9.511719 38.15625 9.777344 38.34375 L 16.8125 43.371094 C 16.988281 43.496094 17.191406 43.558594 17.398438 43.558594 C 17.601562 43.558594 17.804688 43.496094 17.980469 43.371094 L 25.015625 38.34375 C 25.28125 38.15625 25.4375 37.851562 25.4375 37.527344 " fill-opacity="1" fill-rule="nonzero"/></g><path fill="#3478ee" d="M 35.488281 44.5625 C 35.488281 44.238281 35.332031 43.933594 35.066406 43.746094 L 28.03125 38.722656 C 27.683594 38.472656 27.214844 38.472656 26.863281 38.722656 L 19.828125 43.746094 C 19.5625 43.933594 19.40625 44.238281 19.40625 44.5625 C 19.40625 44.886719 19.5625 45.191406 19.828125 45.378906 L 26.863281 50.40625 C 27.039062 50.53125 27.242188 50.59375 27.445312 50.59375 C 27.652344 50.59375 27.855469 50.53125 28.03125 50.40625 L 35.066406 45.378906 C 35.332031 45.191406 35.488281 44.886719 35.488281 44.5625 " fill-opacity="1" fill-rule="nonzero"/><g clip-path="url(#b702c35153)"><g clip-path="url(#9505c80eeb)"><path fill="#3478ee" d="M 33.863281 33.863281 L 41.136719 33.863281 L 41.136719 41.136719 L 33.863281 41.136719 Z M 33.863281 33.863281 " fill-opacity="1" fill-rule="nonzero"/></g></g></svg>