<svg xmlns="http://www.w3.org/2000/svg" xmlns:xlink="http://www.w3.org/1999/xlink" width="100" zoomAndPan="magnify" viewBox="0 0 75 74.999997" height="100" preserveAspectRatio="xMidYMid meet" version="1.0"><defs><clipPath id="dd5e11c00b"><path d="M 12.976562 11.8125 L 64.726562 11.8125 L 64.726562 60 L 12.976562 60 Z M 12.976562 11.8125 " clip-rule="nonzero"/></clipPath><clipPath id="5ee0dbdfe8"><path d="M 17 60 L 61 60 L 61 63.5625 L 17 63.5625 Z M 17 60 " clip-rule="nonzero"/></clipPath><clipPath id="99a4881d1a"><path d="M 21.226562 18.449219 L 33.378906 18.449219 L 33.378906 30.601562 L 21.226562 30.601562 Z M 21.226562 18.449219 " clip-rule="nonzero"/></clipPath><clipPath id="bc06852a6e"><path d="M 27.300781 18.449219 C 23.949219 18.449219 21.226562 21.167969 21.226562 24.523438 C 21.226562 27.878906 23.949219 30.601562 27.300781 30.601562 C 30.65625 30.601562 33.378906 27.878906 33.378906 24.523438 C 33.378906 21.167969 30.65625 18.449219 27.300781 18.449219 Z M 27.300781 18.449219 " clip-rule="nonzero"/></clipPath></defs><g clip-path="url(#dd5e11c00b)"><path fill="#3478ee" d="M 60.320312 11.808594 L 17.136719 11.808594 C 14.851562 11.808594 12.992188 13.667969 12.992188 15.953125 L 12.992188 55.460938 C 12.992188 57.746094 14.851562 59.605469 17.136719 59.605469 L 60.320312 59.605469 C 62.609375 59.605469 64.46875 57.746094 64.46875 55.460938 L 64.46875 15.953125 C 64.46875 13.667969 62.609375 11.808594 60.320312 11.808594 Z M 59.988281 52.566406 C 59.988281 53.867188 58.929688 54.925781 57.628906 54.925781 L 19.828125 54.925781 C 18.527344 54.925781 17.46875 53.867188 17.46875 52.566406 L 17.46875 18.03125 C 17.46875 16.730469 18.527344 15.675781 19.828125 15.675781 L 57.628906 15.675781 C 58.929688 15.675781 59.988281 16.730469 59.988281 18.03125 Z M 59.988281 52.566406 " fill-opacity="1" fill-rule="nonzero"/></g><path fill="#3478ee" d="M 57.628906 16.507812 L 39.148438 16.507812 L 39.148438 54.089844 L 57.628906 54.089844 C 58.472656 54.089844 59.15625 53.40625 59.15625 52.566406 L 59.15625 18.03125 C 59.15625 17.191406 58.472656 16.507812 57.628906 16.507812 Z M 46.707031 37.523438 C 46.707031 38.894531 45.59375 40.007812 44.222656 40.007812 C 43.878906 40.007812 43.546875 39.9375 43.230469 39.804688 C 42.320312 39.40625 41.734375 38.511719 41.734375 37.523438 L 41.734375 33.074219 C 41.734375 31.707031 42.851562 30.589844 44.21875 30.589844 C 45.210938 30.589844 46.105469 31.175781 46.503906 32.082031 C 46.640625 32.402344 46.707031 32.734375 46.707031 33.074219 Z M 46.707031 37.523438 " fill-opacity="1" fill-rule="nonzero"/><path fill="#3478ee" d="M 45.871094 33.074219 L 45.871094 37.523438 C 45.871094 38.433594 45.132812 39.171875 44.21875 39.171875 C 43.992188 39.171875 43.769531 39.128906 43.5625 39.039062 C 42.960938 38.773438 42.570312 38.179688 42.570312 37.523438 L 42.570312 33.074219 C 42.570312 32.164062 43.308594 31.425781 44.222656 31.425781 C 44.878906 31.425781 45.472656 31.816406 45.738281 32.414062 C 45.828125 32.625 45.871094 32.847656 45.871094 33.074219 Z M 45.871094 33.074219 " fill-opacity="1" fill-rule="nonzero"/><path fill="#3478ee" d="M 19.828125 16.507812 C 18.988281 16.507812 18.304688 17.191406 18.304688 18.03125 L 18.304688 52.566406 C 18.304688 53.40625 18.988281 54.089844 19.828125 54.089844 L 38.3125 54.089844 L 38.3125 16.507812 Z M 36.199219 37.523438 C 36.199219 38.894531 35.085938 40.007812 33.714844 40.007812 C 33.367188 40.007812 33.035156 39.9375 32.722656 39.800781 C 31.816406 39.40625 31.226562 38.511719 31.226562 37.523438 L 31.226562 33.074219 C 31.226562 32.414062 31.488281 31.789062 31.957031 31.316406 C 32.425781 30.847656 33.050781 30.589844 33.714844 30.589844 C 34.703125 30.589844 35.597656 31.175781 35.996094 32.082031 C 36.132812 32.402344 36.199219 32.734375 36.199219 33.074219 Z M 36.199219 37.523438 " fill-opacity="1" fill-rule="nonzero"/><path fill="#3478ee" d="M 35.367188 33.074219 L 35.367188 37.523438 C 35.367188 38.433594 34.625 39.171875 33.714844 39.171875 C 33.484375 39.171875 33.261719 39.128906 33.054688 39.035156 C 32.453125 38.773438 32.0625 38.179688 32.0625 37.523438 L 32.0625 33.074219 C 32.0625 32.636719 32.234375 32.21875 32.546875 31.90625 C 32.859375 31.597656 33.273438 31.425781 33.714844 31.425781 C 34.371094 31.425781 34.96875 31.816406 35.230469 32.414062 C 35.320312 32.625 35.367188 32.847656 35.367188 33.074219 Z M 35.367188 33.074219 " fill-opacity="1" fill-rule="nonzero"/><g clip-path="url(#5ee0dbdfe8)"><path fill="#3478ee" d="M 60.175781 60.441406 L 60.175781 61.554688 C 60.175781 62.453125 59.445312 63.183594 58.550781 63.183594 L 19.179688 63.183594 C 18.945312 63.183594 18.707031 63.128906 18.492188 63.027344 C 17.921875 62.761719 17.554688 62.183594 17.554688 61.554688 L 17.554688 60.441406 Z M 60.175781 60.441406 " fill-opacity="1" fill-rule="nonzero"/></g><g clip-path="url(#99a4881d1a)"><g clip-path="url(#bc06852a6e)"><path fill="#3478ee" d="M 21.226562 18.449219 L 33.378906 18.449219 L 33.378906 30.601562 L 21.226562 30.601562 Z M 21.226562 18.449219 " fill-opacity="1" fill-rule="nonzero"/></g></g></svg>