<svg xmlns="http://www.w3.org/2000/svg" xmlns:xlink="http://www.w3.org/1999/xlink" width="100" zoomAndPan="magnify" viewBox="0 0 75 74.999997" height="100" preserveAspectRatio="xMidYMid meet" version="1.0"><defs><clipPath id="a9a800ac10"><path d="M 9.175781 18.546875 L 66 18.546875 L 66 56.796875 L 9.175781 56.796875 Z M 9.175781 18.546875 " clip-rule="nonzero"/></clipPath><clipPath id="923b7582a8"><path d="M 12 37 L 28 37 L 28 41 L 12 41 Z M 12 37 " clip-rule="nonzero"/></clipPath><clipPath id="0d5633ae80"><path d="M 12.507812 37.332031 L 28.148438 39.203125 L 27.96875 40.691406 L 12.332031 38.820312 Z M 12.507812 37.332031 " clip-rule="nonzero"/></clipPath><clipPath id="ce96a70944"><path d="M 12.507812 37.332031 L 28.148438 39.203125 L 27.96875 40.691406 L 12.332031 38.820312 Z M 12.507812 37.332031 " clip-rule="nonzero"/></clipPath></defs><g clip-path="url(#a9a800ac10)"><path fill="#3478ee" d="M 46.914062 18.546875 L 46.667969 18.660156 L 9.683594 36.363281 L 9.246094 36.3125 L 9.246094 52.984375 L 10.070312 53.078125 L 37.808594 56.316406 L 38.847656 56.4375 L 38.847656 56.171875 L 38.902344 56.230469 L 65.410156 31.59375 L 65.707031 31.316406 L 65.707031 30.910156 L 65.730469 21.644531 L 65.734375 20.820312 L 64.910156 20.71875 L 47.183594 18.578125 L 46.917969 18.546875 Z M 47.523438 20.492188 L 48.5 20.609375 C 46.953125 21.621094 46.105469 22.085938 44.546875 22.808594 C 43.695312 23.203125 42.554688 23.757812 42.015625 24.042969 C 41.480469 24.324219 40.078125 24.972656 38.90625 25.480469 C 34.449219 27.402344 30.257812 29.617188 28.414062 31.015625 C 27.019531 32.078125 27.019531 32.507812 28.414062 31.640625 C 28.917969 31.328125 29.902344 30.683594 30.601562 30.214844 C 31.957031 29.304688 32.828125 28.933594 35.5 28.101562 C 38.640625 27.125 49.03125 22.304688 49.957031 21.398438 C 50.15625 21.203125 50.371094 21.023438 50.601562 20.863281 L 51.460938 20.96875 C 51.085938 21.113281 50.878906 21.253906 50.652344 21.476562 C 50.410156 21.714844 49.90625 22.105469 49.535156 22.34375 C 48.515625 22.996094 44.390625 25.042969 42.011719 26.070312 C 40.851562 26.574219 39.066406 27.417969 38.039062 27.953125 C 37.015625 28.484375 35.125 29.375 33.839844 29.929688 C 30.675781 31.289062 29.34375 31.953125 27.660156 33.015625 C 25.300781 34.5 23.539062 35.777344 21.277344 37.714844 L 18.585938 37.402344 C 19.21875 36.742188 19.691406 36.351562 20.566406 35.699219 C 20.972656 35.394531 22.132812 34.347656 23.140625 33.371094 C 24.699219 31.863281 24.960938 31.574219 24.867188 31.476562 C 24.847656 31.460938 24.820312 31.453125 24.789062 31.453125 C 24.6875 31.460938 24.527344 31.554688 24.335938 31.71875 C 24.105469 31.917969 23.25 32.570312 22.433594 33.171875 C 21.054688 34.179688 19.375 35.632812 17.628906 37.292969 L 16.089844 37.113281 C 16.382812 36.796875 16.664062 36.503906 16.886719 36.285156 C 17.472656 35.707031 18.101562 34.988281 18.359375 34.601562 C 18.4375 34.484375 18.585938 34.304688 18.785156 34.070312 L 35.46875 26.085938 C 35.609375 26.039062 35.757812 25.988281 35.914062 25.925781 C 36.371094 25.742188 37.449219 25.3125 38.308594 24.96875 C 39.84375 24.359375 44.640625 22.074219 46.675781 20.988281 C 46.90625 20.867188 47.207031 20.691406 47.523438 20.492188 Z M 54.300781 21.59375 C 54.480469 21.59375 54.59375 21.65625 54.707031 21.773438 C 55.042969 22.113281 54.816406 22.574219 53.917969 23.402344 C 53.332031 23.941406 53.203125 24.105469 53.292969 24.199219 C 53.445312 24.351562 54.882812 23.628906 56.121094 22.777344 C 56.453125 22.546875 56.917969 22.171875 57.46875 21.691406 L 58.195312 21.78125 C 57.257812 22.625 56.472656 23.277344 56.011719 23.574219 C 54.695312 24.429688 53.636719 24.960938 51.648438 25.773438 C 50.515625 26.238281 49.535156 26.546875 49.242188 26.542969 C 48.761719 26.53125 48.746094 26.515625 48.824219 26.152344 C 48.871094 25.945312 48.964844 25.71875 49.035156 25.648438 C 49.105469 25.578125 49.898438 25.109375 50.796875 24.609375 C 52.8125 23.476562 53.347656 23.082031 53.144531 22.882812 C 53.058594 22.792969 52.726562 22.875 52.273438 23.097656 C 51.867188 23.292969 51.117188 23.535156 50.601562 23.632812 C 49.613281 23.820312 48.339844 24.460938 45.859375 26.011719 C 45.164062 26.449219 43.882812 27.136719 43.011719 27.539062 C 42.140625 27.945312 41.109375 28.480469 40.722656 28.730469 C 40.335938 28.984375 39.371094 29.410156 38.578125 29.675781 C 36.425781 30.394531 34.996094 31.054688 33.023438 32.226562 C 32.046875 32.808594 29.980469 33.949219 28.429688 34.757812 C 26.882812 35.570312 25.253906 36.480469 24.816406 36.78125 C 24.4375 37.042969 23.9375 37.4375 23.332031 37.957031 L 22.445312 37.851562 C 24.429688 36.164062 25.921875 35.3125 29.097656 33.644531 C 30.804688 32.746094 32.710938 31.6875 33.335938 31.289062 C 34.65625 30.441406 34.980469 30.285156 38.101562 28.988281 C 39.390625 28.453125 40.5 27.964844 40.566406 27.898438 C 40.632812 27.832031 41.117188 27.597656 41.636719 27.378906 C 43.367188 26.65625 44.410156 26.125 45.789062 25.273438 C 47.980469 23.917969 49.753906 23.03125 50.597656 22.867188 C 51.023438 22.785156 51.929688 22.472656 52.609375 22.175781 C 53.539062 21.769531 54.007812 21.589844 54.300781 21.59375 Z M 59.621094 21.953125 L 60.449219 22.054688 C 59.710938 22.632812 58.640625 23.464844 57.660156 24.214844 C 54.300781 26.789062 52.832031 27.597656 50.589844 28.121094 C 48.367188 28.640625 45.21875 29.484375 44.542969 29.742188 C 44.0625 29.921875 43.925781 29.902344 43.652344 29.625 L 43.328125 29.292969 L 40.867188 30.339844 C 38.214844 31.46875 33.226562 34.046875 32.707031 34.558594 C 31.933594 35.320312 33.300781 34.769531 36.835938 32.898438 C 40.257812 31.085938 41.90625 30.515625 42.785156 30.839844 C 43.015625 30.925781 43.238281 31.03125 43.277344 31.070312 C 43.488281 31.28125 44.664062 31.003906 46.433594 30.332031 C 47.527344 29.917969 49.351562 29.332031 50.492188 29.03125 C 51.863281 28.671875 53.355469 28.125 54.742188 27.492188 L 51.785156 29.582031 C 51.601562 29.636719 51.433594 29.683594 51.285156 29.707031 C 49.484375 30.019531 47.988281 30.480469 47.914062 30.75 C 47.859375 30.972656 48.617188 31.019531 49.28125 30.839844 C 49.632812 30.742188 50.28125 30.503906 50.71875 30.304688 C 50.753906 30.289062 50.800781 30.269531 50.84375 30.25 L 48.429688 31.957031 C 48.34375 31.929688 48.226562 31.917969 48.082031 31.917969 C 47.246094 31.917969 45.640625 32.335938 45.449219 32.742188 C 45.296875 33.066406 45.613281 33.203125 46.34375 33.136719 C 46.511719 33.121094 46.730469 33.070312 46.960938 33 L 45.191406 34.25 C 44.796875 34.347656 44.484375 34.492188 44.140625 34.714844 C 43.097656 35.390625 41.386719 36.070312 40.871094 36.007812 C 40 35.90625 37.554688 37.144531 35.617188 38.671875 C 35.308594 38.917969 35.066406 39.117188 34.871094 39.300781 L 34.042969 39.207031 C 34.148438 39.117188 34.261719 39.027344 34.390625 38.921875 C 35.832031 37.710938 37.351562 36.65625 39 35.730469 C 40.175781 35.066406 40.394531 35.003906 41.5625 34.972656 C 42.207031 34.953125 43.109375 34.511719 43.707031 33.925781 C 44.082031 33.558594 44.191406 33.371094 44.023438 33.359375 C 43.890625 33.347656 43.585938 33.449219 43.113281 33.648438 C 42.253906 34.015625 41.929688 34.066406 41.027344 33.984375 C 39.757812 33.867188 39.554688 33.917969 38.117188 34.730469 C 37.144531 35.273438 36.84375 35.511719 35.652344 36.648438 C 34.691406 37.5625 33.839844 38.464844 33.304688 39.121094 L 31.988281 38.964844 C 32.113281 38.804688 32.261719 38.644531 32.449219 38.460938 C 32.820312 38.097656 33.40625 37.589844 33.75 37.335938 C 34.09375 37.078125 34.871094 36.40625 35.480469 35.839844 C 36.332031 35.042969 36.847656 34.65625 37.722656 34.140625 C 38.347656 33.777344 39.042969 33.34375 39.265625 33.179688 C 39.824219 32.769531 40.40625 32.671875 40.949219 32.898438 C 41.777344 33.242188 43.539062 32.875 44.210938 32.214844 C 44.527344 31.90625 44.398438 31.832031 43.738281 31.941406 C 43.429688 31.992188 42.816406 31.921875 42.375 31.789062 C 42.046875 31.691406 41.839844 31.636719 41.609375 31.648438 C 41.316406 31.664062 40.988281 31.78125 40.324219 32.046875 C 39.089844 32.539062 32.898438 35.585938 30.972656 36.648438 C 30.261719 37.042969 29.136719 37.710938 27.863281 38.484375 L 26.742188 38.355469 C 27.84375 37.636719 28.441406 37.210938 28.464844 37.121094 C 28.476562 37.078125 28.445312 37.0625 28.378906 37.066406 C 28.09375 37.082031 27.144531 37.527344 26.132812 38.144531 L 25.941406 38.261719 L 24.886719 38.140625 C 25.914062 37.464844 27.070312 36.789062 28.449219 36.039062 C 29.597656 35.414062 31.628906 34.296875 32.964844 33.550781 C 36.394531 31.640625 39.140625 30.246094 40.585938 29.683594 C 41.269531 29.421875 42.511719 28.882812 43.34375 28.488281 C 45.097656 27.660156 46.011719 27.339844 46.167969 27.5 C 46.230469 27.558594 46.269531 27.777344 46.257812 27.984375 C 46.226562 28.476562 46.457031 28.507812 47.53125 28.144531 C 48.023438 27.980469 49.4375 27.574219 50.671875 27.246094 C 52.582031 26.734375 53.09375 26.539062 54.117188 25.933594 C 54.777344 25.542969 55.578125 25.015625 55.894531 24.761719 C 56.210938 24.511719 57.265625 23.714844 58.246094 22.996094 C 58.738281 22.632812 59.230469 22.257812 59.621094 21.953125 Z M 63.863281 23.320312 L 63.859375 25.410156 C 62.769531 26.28125 61.847656 27.0625 61.769531 27.183594 C 61.496094 27.609375 62.117188 27.335938 63.621094 26.367188 L 63.855469 26.214844 L 63.851562 27.078125 L 62.878906 27.710938 C 61.667969 28.492188 60.261719 29.351562 59.757812 29.617188 C 59.25 29.882812 57.949219 30.613281 56.867188 31.242188 C 54.394531 32.679688 51.28125 34.144531 49.621094 34.65625 C 48.917969 34.871094 47.429688 35.40625 46.3125 35.847656 L 45.949219 35.988281 L 48.785156 33.984375 C 48.96875 33.921875 49.144531 33.859375 49.296875 33.8125 C 51.558594 33.070312 53.125 32.21875 52.3125 32.167969 C 52.300781 32.167969 52.285156 32.167969 52.269531 32.167969 C 52.058594 32.179688 51.523438 32.3125 50.886719 32.5 L 52.996094 31.003906 C 53.859375 30.691406 54.515625 30.335938 54.6875 30.0625 C 54.71875 30.015625 54.683594 29.992188 54.59375 29.992188 C 54.546875 29.992188 54.480469 30 54.402344 30.011719 L 58.3125 27.246094 C 58.835938 26.933594 59.390625 26.582031 59.996094 26.183594 C 61.402344 25.25 62.527344 24.429688 63.644531 23.476562 Z M 58.875 27.835938 C 58.667969 27.835938 58.046875 28.136719 56.996094 28.738281 C 56.007812 29.304688 55.183594 29.78125 55.164062 29.804688 C 54.992188 29.972656 55.429688 29.925781 56.339844 29.679688 C 57.425781 29.386719 58.097656 28.984375 58.722656 28.257812 C 58.960938 27.980469 59.015625 27.835938 58.875 27.835938 Z M 63.84375 29.339844 L 63.84375 29.925781 C 62.074219 31.582031 62.382812 31.378906 56.226562 34.019531 C 54.914062 34.582031 53.539062 35.234375 53.175781 35.472656 C 52.808594 35.707031 51.816406 36.230469 50.972656 36.636719 C 49.058594 37.558594 48.273438 38.105469 46.296875 39.902344 C 44.949219 41.128906 44.609375 41.386719 43.9375 41.707031 C 43.144531 42.082031 42.304688 42.171875 41.769531 41.9375 C 41.019531 41.613281 39.914062 41.90625 39.1875 42.625 C 39.109375 42.699219 38.984375 42.804688 38.847656 42.917969 L 38.847656 41.011719 L 41.113281 39.40625 C 41.546875 39.175781 42.007812 38.925781 42.359375 38.730469 C 42.953125 38.398438 44.199219 37.796875 45.132812 37.386719 C 46.421875 36.820312 47.042969 36.628906 47.683594 36.59375 C 48.363281 36.558594 48.996094 36.351562 50.785156 35.578125 C 52.019531 35.042969 53.746094 34.304688 54.621094 33.933594 C 57.164062 32.851562 61.054688 31.132812 61.726562 30.792969 C 62.238281 30.535156 62.636719 30.269531 63.84375 29.339844 Z M 60.371094 33.273438 L 59.636719 34.039062 C 58.808594 34.90625 58.253906 35.261719 55.621094 36.636719 C 52.863281 38.074219 51.882812 38.878906 50.039062 41.199219 C 49.265625 42.175781 49.148438 42.375 49.277344 42.507812 C 49.410156 42.644531 49.605469 42.515625 50.929688 41.457031 C 52.347656 40.316406 52.464844 40.207031 52.96875 39.464844 C 53.492188 38.699219 53.523438 38.671875 54.242188 38.289062 C 54.648438 38.070312 55.242188 37.808594 55.5625 37.707031 L 56.148438 37.519531 L 52.527344 41 L 51.726562 41.765625 L 48.574219 44.695312 L 47.046875 45.710938 C 44.8125 47.195312 43.074219 48.203125 41.742188 48.777344 C 41.199219 49.011719 40.492188 49.347656 40.167969 49.519531 C 39.917969 49.65625 39.378906 49.910156 38.847656 50.144531 L 38.847656 48.128906 L 38.898438 48.101562 C 39.582031 47.742188 43.160156 46.300781 45.40625 45.476562 C 46.675781 45.011719 47.632812 44.433594 47.988281 43.921875 C 48.171875 43.65625 48.101562 43.433594 47.933594 43.425781 C 47.859375 43.421875 47.765625 43.460938 47.664062 43.5625 C 47.53125 43.691406 46.597656 44.226562 45.589844 44.753906 C 44.105469 45.527344 43.386719 45.808594 41.820312 46.234375 C 40.527344 46.585938 39.664062 46.867188 38.847656 47.242188 L 38.847656 45.15625 C 39.128906 44.910156 39.355469 44.71875 39.464844 44.640625 C 39.957031 44.289062 41.820312 43.617188 44.636719 42.777344 C 46.210938 42.308594 46.855469 41.9375 47.519531 41.113281 C 49.683594 38.429688 50.210938 37.84375 50.785156 37.464844 C 51.101562 37.253906 52.007812 36.859375 52.796875 36.585938 C 54.527344 35.992188 56.765625 35.039062 58.835938 34.027344 L 60.367188 33.273438 Z M 16.175781 35.320312 C 15.589844 35.910156 15.050781 36.453125 14.574219 36.933594 L 13.953125 36.863281 C 14.246094 36.558594 14.539062 36.261719 14.835938 35.960938 Z M 29.785156 36.21875 C 29.6875 36.230469 29.511719 36.332031 29.339844 36.503906 C 29.066406 36.777344 29.070312 36.78125 29.414062 36.65625 C 29.609375 36.582031 29.804688 36.453125 29.84375 36.371094 C 29.894531 36.257812 29.863281 36.210938 29.785156 36.21875 Z M 41.710938 36.710938 L 37.59375 39.621094 L 36.175781 39.457031 C 36.578125 38.867188 36.890625 38.753906 37.675781 38.449219 C 38.199219 38.246094 39.523438 37.679688 40.617188 37.1875 C 40.984375 37.023438 41.355469 36.863281 41.710938 36.710938 Z M 13.191406 36.75 C 13.183594 36.757812 13.175781 36.761719 13.167969 36.769531 L 13.148438 36.769531 Z M 11.105469 38.40625 L 13.191406 38.648438 C 12.417969 38.816406 11.722656 39.007812 11.105469 39.226562 Z M 30.285156 38.40625 C 30.359375 38.40625 30.414062 38.425781 30.445312 38.457031 C 30.550781 38.566406 30.585938 38.625 30.453125 38.785156 L 29.398438 38.664062 C 29.804688 38.492188 30.105469 38.402344 30.285156 38.40625 Z M 16.101562 38.984375 L 26.507812 40.203125 C 25.558594 40.300781 24.738281 40.417969 24.585938 40.503906 C 24.507812 40.546875 24.476562 40.652344 24.511719 40.742188 C 24.613281 40.976562 25.796875 41.074219 27.382812 40.984375 C 28.523438 40.921875 28.976562 40.949219 30.613281 41.199219 C 33.523438 41.644531 35.175781 42.050781 36.984375 42.859375 L 36.984375 45.082031 C 36.835938 44.992188 36.679688 44.902344 36.507812 44.8125 C 35.949219 44.511719 35.140625 44.027344 34.710938 43.742188 C 34.285156 43.453125 33.640625 43.082031 33.285156 42.914062 C 32.644531 42.613281 32.597656 42.605469 30.488281 42.597656 C 28.121094 42.589844 25.636719 42.296875 24.625 41.910156 C 24.316406 41.789062 23.53125 41.621094 22.875 41.527344 C 22.21875 41.4375 21.253906 41.292969 20.730469 41.199219 C 20.207031 41.109375 19.164062 41.003906 18.414062 40.96875 C 18.179688 40.960938 17.957031 40.953125 17.746094 40.953125 C 16.269531 40.957031 15.300781 41.265625 13.464844 42.226562 C 12.894531 42.527344 12.382812 42.769531 12.324219 42.769531 C 12.269531 42.769531 12.003906 42.949219 11.734375 43.171875 C 11.273438 43.554688 11.25 43.601562 11.304688 44.066406 C 11.359375 44.511719 11.449219 44.632812 12.257812 45.320312 C 12.757812 45.742188 13.539062 46.261719 14.027344 46.5 C 14.621094 46.785156 15.121094 47.136719 15.589844 47.601562 C 16.386719 48.394531 17.648438 49.195312 18.550781 49.480469 C 19.546875 49.796875 20.464844 50.191406 21.207031 50.621094 C 21.585938 50.84375 22.304688 51.160156 22.800781 51.324219 C 23.300781 51.492188 24.160156 51.785156 24.71875 51.976562 C 26.925781 52.742188 27.019531 52.765625 28.316406 52.824219 C 29.722656 52.886719 31.160156 52.726562 31.917969 52.421875 C 32.535156 52.175781 34.21875 51.125 35.148438 50.410156 C 35.550781 50.101562 36.246094 49.691406 36.695312 49.5 C 36.796875 49.457031 36.890625 49.410156 36.984375 49.363281 L 36.984375 51.613281 C 36.570312 51.851562 36.167969 52.027344 35.742188 52.15625 C 35.40625 52.253906 34.613281 52.523438 33.980469 52.75 C 32.59375 53.25 31.722656 53.480469 30.523438 53.589844 L 23.324219 52.75 C 23.03125 52.605469 22.738281 52.441406 22.441406 52.253906 C 22.023438 51.992188 21.375 51.582031 21 51.347656 C 20.621094 51.109375 19.757812 50.71875 19.082031 50.480469 C 17.824219 50.039062 17.003906 49.625 15.199219 48.523438 C 14.644531 48.183594 13.671875 47.675781 13.039062 47.398438 C 12.5 47.160156 11.691406 46.75 11.105469 46.417969 L 11.105469 41.367188 C 12.160156 40.804688 12.773438 40.601562 13.730469 40.492188 C 14.242188 40.433594 14.765625 40.355469 14.894531 40.316406 C 15.808594 40.054688 20.257812 40.332031 22.109375 40.769531 C 22.949219 40.964844 23.417969 40.972656 23.695312 40.789062 C 24.03125 40.566406 23.730469 40.441406 22.398438 40.246094 C 21.742188 40.148438 20.429688 39.941406 19.480469 39.789062 C 18.382812 39.605469 17.84375 39.542969 17.128906 39.542969 C 16.890625 39.542969 16.632812 39.550781 16.328125 39.5625 C 14.597656 39.632812 13.589844 39.859375 11.492188 40.640625 C 11.378906 40.683594 11.234375 40.730469 11.105469 40.777344 L 11.105469 40.121094 C 13.191406 39.308594 14.398438 39.03125 16.097656 38.984375 Z M 34.105469 41.085938 L 36.984375 41.421875 L 36.984375 42.308594 C 36.25 42.003906 35.347656 41.621094 34.210938 41.132812 C 34.175781 41.117188 34.140625 41.101562 34.105469 41.085938 Z M 18.792969 42.347656 C 19.527344 42.347656 20.171875 42.511719 21.527344 42.921875 C 22.59375 43.242188 24.085938 43.667969 24.835938 43.863281 L 26.207031 44.214844 L 27.871094 44.035156 C 28.789062 43.933594 29.726562 43.855469 29.957031 43.855469 C 30.695312 43.855469 31.757812 44.171875 33.226562 44.828125 C 34.011719 45.179688 35.054688 45.574219 35.542969 45.703125 C 36.144531 45.863281 36.660156 46.128906 36.984375 46.421875 L 36.984375 47.804688 C 36.519531 48.503906 35.679688 49.390625 35.011719 49.808594 C 34.46875 50.148438 31.792969 51.253906 31.101562 51.425781 C 30.441406 51.585938 26.253906 51.460938 25.492188 51.257812 C 25.164062 51.167969 24.269531 50.933594 23.5 50.730469 C 21.792969 50.277344 21.542969 50.167969 19.367188 48.84375 C 18.414062 48.269531 17.074219 47.550781 16.386719 47.246094 C 15.132812 46.699219 14.675781 46.363281 14.078125 45.546875 C 13.710938 45.046875 13.695312 44.601562 14.011719 44.050781 C 14.46875 43.261719 15.476562 42.777344 17.210938 42.511719 C 17.882812 42.40625 18.355469 42.347656 18.792969 42.347656 Z M 19.164062 43.207031 C 18.589844 43.203125 16.917969 43.730469 16.574219 44.023438 C 16.148438 44.382812 16.171875 44.855469 16.65625 45.511719 C 16.886719 45.824219 17.429688 46.292969 17.996094 46.667969 C 18.519531 47.015625 19.4375 47.710938 20.039062 48.210938 C 20.757812 48.804688 21.4375 49.257812 22.003906 49.511719 C 22.875 49.90625 25.992188 50.722656 26.367188 50.660156 C 26.800781 50.582031 26.542969 50.308594 25.871094 50.128906 C 25.492188 50.023438 24.640625 49.734375 23.980469 49.480469 C 22.882812 49.058594 22.675781 48.929688 21.613281 48 C 20.441406 46.976562 19.839844 46.167969 19.839844 45.609375 C 19.839844 45.226562 20.636719 44.542969 21.195312 44.445312 C 21.488281 44.398438 21.917969 44.433594 22.4375 44.554688 C 24.113281 44.949219 24.984375 45.070312 25.085938 44.925781 C 25.230469 44.710938 25.125 44.640625 24.390625 44.453125 C 24.015625 44.359375 23.265625 44.132812 22.722656 43.949219 C 21.6875 43.601562 19.804688 43.207031 19.164062 43.207031 Z M 29.347656 44.960938 C 29.207031 44.96875 29.121094 45.007812 29.121094 45.089844 C 29.121094 45.1875 29.214844 45.296875 29.328125 45.332031 C 29.445312 45.371094 30.003906 45.589844 30.574219 45.824219 C 31.144531 46.058594 31.816406 46.28125 32.0625 46.316406 L 32.511719 46.375 L 32.175781 46.050781 C 31.628906 45.519531 29.957031 44.925781 29.347656 44.960938 Z M 21.375 45.078125 C 21.21875 45.085938 21.113281 45.125 20.964844 45.191406 C 20.394531 45.4375 20.40625 45.835938 21.007812 46.527344 C 21.78125 47.414062 22.515625 48.046875 23.1875 48.394531 C 24.335938 48.996094 24.625 48.78125 23.59375 48.085938 C 22.789062 47.542969 22.578125 47.269531 22.578125 46.773438 C 22.578125 46.175781 22.910156 45.960938 23.78125 45.996094 C 24.394531 46.019531 24.480469 46 24.480469 45.820312 C 24.480469 45.648438 24.246094 45.574219 22.925781 45.316406 C 22.089844 45.152344 21.699219 45.082031 21.445312 45.078125 C 21.417969 45.078125 21.394531 45.078125 21.375 45.078125 Z M 25.574219 46.722656 C 24.546875 46.726562 23.675781 46.742188 23.488281 46.765625 C 23.433594 46.773438 23.410156 46.890625 23.429688 47.023438 C 23.457031 47.191406 23.769531 47.433594 24.480469 47.832031 C 25.507812 48.40625 26.035156 48.589844 26.273438 48.457031 C 26.359375 48.410156 26.273438 48.257812 26.035156 48.035156 C 25.4375 47.472656 25.605469 47.324219 26.84375 47.3125 C 27.410156 47.308594 27.992188 47.285156 28.136719 47.261719 C 28.484375 47.199219 28.992188 47.382812 29.082031 47.597656 C 29.222656 47.929688 28.800781 48.132812 27.722656 48.242188 C 26.921875 48.328125 26.675781 48.390625 26.648438 48.527344 C 26.53125 49.074219 29.925781 48.867188 30.496094 48.289062 C 30.621094 48.164062 30.667969 47.996094 30.625 47.84375 C 30.535156 47.523438 29.925781 46.917969 29.570312 46.792969 C 29.4375 46.746094 27.289062 46.71875 25.574219 46.722656 Z M 34.496094 47.339844 C 34.367188 47.335938 34.261719 47.488281 34.09375 47.835938 C 33.769531 48.511719 33.1875 49.140625 32.523438 49.542969 C 31.960938 49.882812 31.820312 50.140625 32.195312 50.140625 C 32.578125 50.140625 33.453125 49.8125 33.785156 49.546875 C 34.167969 49.242188 34.78125 48.359375 34.890625 47.960938 C 34.945312 47.769531 34.90625 47.621094 34.773438 47.5 C 34.660156 47.398438 34.574219 47.339844 34.496094 47.339844 Z M 11.105469 47.421875 C 12.507812 48.203125 14.507812 49.242188 15.554688 49.710938 C 15.953125 49.894531 16.695312 50.140625 17.199219 50.257812 C 18.113281 50.46875 18.3125 50.574219 19.675781 51.574219 C 20.066406 51.863281 20.527344 52.175781 21.007812 52.480469 L 19.515625 52.304688 C 19.1875 52.09375 18.804688 51.828125 18.542969 51.625 C 18.070312 51.253906 17.644531 51.046875 16.9375 50.835938 C 15.5 50.40625 14.890625 50.15625 13.734375 49.519531 C 13.15625 49.203125 12.371094 48.800781 11.992188 48.625 C 11.804688 48.539062 11.476562 48.367188 11.105469 48.164062 Z M 31.96875 47.761719 C 31.8125 47.769531 31.636719 47.894531 31.5 48.15625 C 31.21875 48.691406 30.796875 48.933594 29.328125 49.414062 C 29.214844 49.453125 29.121094 49.558594 29.121094 49.648438 C 29.121094 49.777344 29.261719 49.8125 29.730469 49.8125 C 30.066406 49.8125 30.5625 49.753906 30.832031 49.683594 C 31.484375 49.503906 32.335938 48.734375 32.332031 48.328125 C 32.328125 47.953125 32.167969 47.757812 31.96875 47.761719 Z M 44.707031 48.289062 L 38.84375 53.738281 L 38.84375 51.429688 C 39.246094 51.125 39.648438 50.84375 40.039062 50.601562 C 40.8125 50.121094 43.378906 48.847656 44.625 48.324219 Z M 11.105469 49.46875 C 12.753906 50.410156 14.496094 51.328125 15.652344 51.855469 L 14.03125 51.667969 C 13.023438 51.160156 11.90625 50.566406 11.105469 50.09375 Z M 11.105469 51.21875 C 11.191406 51.265625 11.277344 51.3125 11.359375 51.355469 L 11.105469 51.324219 Z M 36.984375 52.164062 L 36.984375 53.445312 C 36.449219 53.664062 35.84375 53.894531 35.171875 54.132812 L 33.074219 53.890625 C 34.425781 53.433594 35.796875 52.824219 36.984375 52.164062 Z M 36.984375 52.164062 " fill-opacity="1" fill-rule="nonzero"/></g><g clip-path="url(#923b7582a8)"><g clip-path="url(#0d5633ae80)"><g clip-path="url(#ce96a70944)"><path fill="#3478ee" d="M 12.507812 37.332031 L 27.878906 39.171875 L 27.738281 40.355469 L 12.367188 38.515625 Z M 12.507812 37.332031 " fill-opacity="1" fill-rule="nonzero"/></g></g></g></svg>